<svg width="742" height="183" viewBox="0 0 742 183" fill="none" xmlns="http://www.w3.org/2000/svg">
<g clip-path="url(#clip0)">
<path d="M131.796 32.2537H10.3022C8.53877 32.2537 7.105 33.6856 7.105 35.4562V64.2787C7.105 66.0451 8.53877 67.4812 10.3022 67.4812H13.4994V147.544C13.4994 149.31 14.9332 150.746 16.6966 150.746H125.402C127.165 150.746 128.599 149.31 128.599 147.544V67.4812H131.796C133.559 67.4812 134.993 66.0451 134.993 64.2787V35.4562C134.993 33.6856 133.559 32.2537 131.796 32.2537ZM122.204 144.341H19.8938V67.4812H122.204V144.341ZM128.599 61.0762H13.4994V38.6587H128.599V61.0762Z" fill="#C2AE19"/>
<path d="M88.6238 86.6963C91.2682 86.6963 94.2196 88.854 94.2196 91.5C94.2196 94.1488 91.2696 96.3038 88.6238 96.3038H53.4545C50.8101 96.3038 47.8587 94.1488 47.8587 91.5C47.8587 88.854 50.8101 86.6963 53.4545 86.6963H88.6238ZM88.6238 80.2913H53.4545C47.2761 80.2913 42.2643 85.3099 42.2643 91.5C42.2643 97.6929 47.2761 102.709 53.4545 102.709H88.6238C94.8036 102.709 99.814 97.6929 99.814 91.5C99.814 85.3099 94.8036 80.2913 88.6238 80.2913Z" fill="#C2AE19"/>
<path d="M262.12 65.6563C258.06 62.403 253.374 60.7763 248.062 60.7763C242.717 60.7763 235.781 61.8269 227.255 63.928C228.575 68.4013 229.234 72.9594 229.234 77.6021C229.234 82.2449 229.116 85.9896 228.879 88.8363C232.364 88.1585 235.849 87.8196 239.334 87.8196C242.818 87.8196 246.235 88.4805 249.585 89.8021C249.585 93.3605 248.841 96.1563 247.352 98.1896C243.698 96.8341 239.486 96.1563 234.715 96.1563C233.328 96.1563 231.095 96.3935 228.016 96.868C226.156 109.475 222.485 119.506 217.004 126.961C211.523 134.383 205.078 138.094 197.668 138.094C193.202 138.094 189.599 136.755 186.859 134.078C184.085 131.401 182.697 127.825 182.697 123.352C182.697 117.252 185.235 111.457 190.31 105.967C195.385 100.477 202.067 96.1055 210.356 92.8521C210.931 90.4121 211.218 86.803 211.218 82.0246C211.218 77.2802 210.762 73.1119 209.848 69.5196C207.818 70.028 205.551 70.2821 203.048 70.2821C198.244 70.2821 194.437 69.1808 191.629 66.978C188.855 64.7752 187.468 61.9455 187.468 58.4888C187.468 55.0321 189.092 52.2024 192.34 49.9996C195.588 47.8308 199.8 46.7463 204.976 46.7463C212.859 46.7463 218.949 49.7963 223.246 55.8963C229.573 52.4735 234.089 50.1013 236.796 48.7796C243.36 45.4585 248.739 43.798 252.934 43.798C257.096 43.798 260.394 45.7127 262.83 49.5421C265.266 53.3716 266.484 57.6755 266.484 62.4538C266.18 63.0977 264.725 64.1652 262.12 65.6563ZM195.841 126.402C198.785 126.402 201.424 124.047 203.758 119.336C206.127 114.592 207.869 108.814 208.985 102.002C204.046 103.934 199.884 106.78 196.501 110.542C193.152 114.27 191.477 117.811 191.477 121.166C191.477 122.793 191.883 124.064 192.695 124.979C193.507 125.928 194.556 126.402 195.841 126.402ZM196.603 59.5563C196.603 60.8441 197.262 61.8269 198.582 62.5046C199.935 63.2163 201.424 63.5721 203.048 63.5721C204.672 63.5721 206.127 63.318 207.412 62.8096C205.382 58.8446 202.828 56.8621 199.749 56.8621C197.651 56.8621 196.603 57.7602 196.603 59.5563ZM272.93 134.79C267.347 134.79 262.966 132.824 259.786 128.893C256.639 124.962 255.066 119.455 255.066 112.372C255.066 103.324 257.468 95.5463 262.272 89.0396C267.11 82.533 273.792 79.2796 282.318 79.2796L286.733 79.5338C288.087 78.8221 289.626 78.4663 291.352 78.4663C297.746 78.4663 300.943 84.5155 300.943 96.6138C304.293 96.4444 307.676 96.0038 311.093 95.2921L313.021 94.7838L313.732 99.5621C311.059 100.68 307.456 101.697 302.922 102.612L300.486 103.07C298.93 111.61 295.801 119.031 291.098 125.335C286.395 131.638 280.339 134.79 272.93 134.79ZM279.527 124.318C282.944 124.318 286.006 122.115 288.713 117.71C291.453 113.338 293.348 108.712 294.397 103.832C285.701 103.832 281.354 100.579 281.354 94.0721C281.354 91.4627 281.878 89.0227 282.927 86.7521L283.536 85.5321C283.232 85.3627 282.826 85.278 282.318 85.278C281.845 85.278 281.489 85.3627 281.252 85.5321C279.222 86.8199 277.311 89.8699 275.518 94.6821C273.725 99.4605 272.828 104.95 272.828 111.152C272.828 119.929 275.061 124.318 279.527 124.318ZM332.002 80.7538H343.826C343.657 82.7871 342.964 85.1424 341.746 87.8196C338.667 87.5146 335.757 87.3621 333.017 87.3621H330.784C327.062 105.493 325.201 116.795 325.201 121.268C325.201 123.64 325.709 124.826 326.724 124.826C327.739 124.826 330.445 123.81 334.844 121.776L337.026 125.792C329.786 131.79 323.087 134.79 316.929 134.79C314.087 134.79 311.753 133.909 309.926 132.146C308.099 130.35 307.185 127.961 307.185 124.979C307.185 122.03 307.524 118.675 308.2 114.914C308.911 111.186 309.875 106.611 311.093 101.189C312.311 95.8005 313.191 91.4288 313.732 88.0738C310.755 88.311 308.522 88.5652 307.033 88.8363C306.898 87.8535 306.83 86.5319 306.83 84.8713C306.83 83.1769 306.948 81.8044 307.185 80.7538H314.848C315.491 76.3821 315.813 72.2308 315.813 68.2996L315.711 64.538V64.1821C322.038 61.9794 328.009 60.878 333.626 60.878C333.93 62.5046 334.082 64.538 334.082 66.978C334.082 69.418 333.389 74.0099 332.002 80.7538ZM359.051 134.79C353.469 134.79 349.087 132.824 345.907 128.893C342.727 124.962 341.137 119.455 341.137 112.372C341.137 103.324 343.556 95.5463 348.394 89.0396C353.232 82.533 359.914 79.2796 368.44 79.2796L372.804 79.5338C374.191 78.8221 375.748 78.4663 377.473 78.4663C383.867 78.4663 387.065 84.5155 387.065 96.6138C390.414 96.4444 393.78 96.0038 397.164 95.2921L399.143 94.7838L399.854 99.5621C397.181 100.68 393.578 101.697 389.044 102.612L386.608 103.07C385.052 111.61 381.922 119.031 377.219 125.335C372.517 131.638 366.46 134.79 359.051 134.79ZM365.648 124.318C369.066 124.318 372.127 122.115 374.834 117.71C377.541 113.338 379.435 108.712 380.518 103.832C371.823 103.832 367.475 100.579 367.475 94.0721C367.475 91.4627 368 89.0227 369.049 86.7521L369.658 85.5321C369.319 85.3627 368.913 85.278 368.44 85.278C367.966 85.278 367.594 85.3627 367.323 85.5321C365.293 86.8199 363.399 89.8699 361.639 94.6821C359.846 99.4605 358.95 104.95 358.95 111.152C358.95 119.929 361.183 124.318 365.648 124.318ZM425.939 139.212C421.067 139.212 417.024 137.602 413.81 134.383C410.595 131.164 408.988 127.419 408.988 123.149C408.988 118.879 410.003 114.897 412.033 111.203C414.063 107.509 416.973 104.069 420.762 100.884C424.518 97.7321 429.44 95.1058 435.53 93.0046C441.62 90.9374 448.37 89.7852 455.779 89.548C460.076 78.9069 463.882 66.9949 467.198 53.8121C467.299 53.3038 467.35 52.6769 467.35 51.9313C467.35 51.1519 466.944 50.4741 466.132 49.898V48.678C473.102 47.3902 479.479 46.7463 485.265 46.7463L492.572 47.2038C494.67 50.9655 495.837 56.1505 496.074 62.7588C496.311 69.401 496.48 80.8894 496.582 97.2238C505.344 101.053 512.855 105.899 519.114 111.762C518.776 112.813 518.15 113.846 517.237 114.863C516.289 115.88 515.41 116.625 514.598 117.1L513.38 117.862C508.575 113.152 503.01 109.119 496.683 105.764C496.852 110.407 497.309 114.321 498.053 117.506C499.17 122.691 500.506 125.284 502.063 125.284C502.942 125.284 503.991 125.08 505.209 124.674L507.036 129.452C501.454 133.01 496.091 134.79 490.948 134.79C482.524 134.79 478.312 128.419 478.312 115.676V99.6638C472.628 98.2744 467.468 97.4271 462.833 97.1221C452.278 125.182 439.979 139.212 425.939 139.212ZM452.734 96.9696C443.566 97.7152 435.936 100.935 429.846 106.628C423.756 112.321 420.711 117.642 420.711 122.59C420.711 127.571 422.606 130.062 426.395 130.062C434.211 130.062 442.99 119.031 452.734 96.9696ZM476.942 56.5063C476.806 56.4046 476.485 56.3538 475.977 56.3538C475.504 56.3538 475.182 56.4046 475.013 56.5063C474.269 62.6741 471.105 73.7727 465.523 89.8021C469.481 90.0394 473.744 90.5985 478.312 91.4796C478.312 71.4852 477.855 59.8274 476.942 56.5063ZM511.806 133.722H510.944C510.774 133.078 510.69 131.587 510.69 129.249C510.69 126.944 511.789 120.709 513.989 110.542C516.188 100.375 517.287 94.5635 517.287 93.1063C517.287 90.5646 516.154 87.7858 513.887 84.7696L512.771 83.3463L512.872 81.7196C517.27 80.4996 524.308 79.8896 533.984 79.8896C534.931 82.0246 535.405 85.0069 535.405 88.8363C536.318 87.3452 538.196 85.3796 541.038 82.9396C543.88 80.4996 546.806 79.2796 549.818 79.2796C554.182 79.2796 556.364 83.1091 556.364 90.768C555.958 91.2424 555.417 91.8694 554.74 92.6488C554.03 93.4283 552.643 94.5127 550.579 95.9021C548.515 97.2916 546.502 98.1388 544.54 98.4438C544.472 98.4438 543.795 97.3424 542.51 95.1396C541.19 92.9708 540.209 91.8863 539.566 91.8863C537.536 92.598 535.743 93.818 534.187 95.5463C530.465 112.355 528.604 123.25 528.604 128.232C528.604 130.028 528.638 131.282 528.706 131.994C525.864 133.146 520.231 133.722 511.806 133.722ZM581.688 85.3796C578.44 85.3796 575.852 88.0908 573.923 93.513C571.961 98.9352 570.98 104.73 570.98 110.898C570.98 120.658 573.991 125.538 580.013 125.538C581.942 125.538 584.006 125.064 586.205 124.115C588.404 123.2 590.146 122.285 591.432 121.37L593.259 119.946L596.101 123.708C595.424 124.589 594.122 125.775 592.193 127.266C590.231 128.724 588.404 129.944 586.712 130.926C584.987 131.875 582.788 132.756 580.115 133.57C577.442 134.383 574.803 134.79 572.198 134.79C565.871 134.79 561.118 132.722 557.937 128.588C554.791 124.454 553.218 118.879 553.218 111.864C553.218 102.205 555.874 94.3602 561.185 88.328C566.497 82.2958 573.331 79.2796 581.688 79.2796C587.135 79.2796 591.466 80.5335 594.68 83.0413C597.894 85.5152 599.501 88.5652 599.501 92.1913C599.501 95.7835 598.368 98.8844 596.101 101.494C594.071 101.494 591.703 101.053 588.996 100.172C586.323 99.2571 584.293 98.1558 582.906 96.868L584.733 86.1421C584.023 85.6338 583.008 85.3796 581.688 85.3796ZM616.299 52.8463C616.299 50.1352 616.062 48.2205 615.589 47.1021C621.915 44.8994 627.87 43.798 633.452 43.798C634.197 44.5435 634.569 46.4074 634.569 49.3896C634.569 54.778 632.302 67.1474 627.768 86.498C634.332 81.6858 640.084 79.2796 645.023 79.2796C648.136 79.2796 650.47 80.2624 652.027 82.228C653.617 84.1935 654.412 86.7691 654.412 89.9546C654.412 93.1741 653.481 98.4269 651.621 105.713C649.76 112.999 648.829 117.981 648.829 120.658C648.829 123.335 649.151 124.674 649.794 124.674C650.436 124.674 652.145 123.945 654.919 122.488L656.391 121.776L658.573 126.046C657.829 126.69 656.848 127.504 655.63 128.486C654.412 129.435 652.179 130.723 648.931 132.35C645.683 133.976 642.706 134.79 639.999 134.79C637.259 134.79 635.076 133.925 633.452 132.197C631.828 130.435 631.016 128.08 631.016 125.131C631.016 122.149 631.93 116.727 633.757 108.865C635.584 101.036 636.497 96.0885 636.497 94.0213C636.497 91.9202 635.652 90.8696 633.96 90.8696C631.862 90.8696 629.223 91.7677 626.043 93.5638C621.577 113.253 619.344 126.029 619.344 131.892C615.927 133.18 610.125 133.824 601.937 133.824C601.836 132.434 601.785 131.214 601.785 130.164C601.785 126.673 604.204 114.727 609.042 94.3263C613.88 73.8913 616.299 60.0646 616.299 52.8463ZM687.653 86.8538C687.653 90.2766 686.57 96.1563 684.405 104.493C682.206 112.83 681.106 118.286 681.106 120.861C681.106 123.403 681.461 124.674 682.172 124.674C682.679 124.674 684.557 123.911 687.805 122.386L689.277 121.624L691.307 125.894C690.596 126.538 689.632 127.351 688.414 128.334C687.196 129.317 684.912 130.638 681.563 132.299C678.247 133.959 675.168 134.79 672.326 134.79C669.484 134.79 667.251 133.925 665.627 132.197C664.003 130.435 663.191 128.08 663.191 125.131C663.191 122.149 664.206 116.862 666.236 109.271C668.266 101.646 669.281 96.6985 669.281 94.428C669.281 91.0052 668.233 87.7858 666.135 84.7696L665.018 83.3463L665.12 81.7196C669.451 80.4996 676.437 79.8896 686.079 79.8896C687.128 81.1096 687.653 83.431 687.653 86.8538ZM673.798 66.5713C672.174 64.9785 671.362 62.8435 671.362 60.1663C671.362 57.4552 672.479 55.083 674.712 53.0496C676.945 51.0163 679.516 49.9996 682.425 49.9996C685.369 49.9996 687.653 50.813 689.277 52.4396C690.901 54.0663 691.713 56.2013 691.713 58.8446C691.713 61.488 690.545 63.8263 688.211 65.8596C685.91 67.893 683.339 68.9096 680.497 68.9096C677.655 68.9096 675.422 68.1302 673.798 66.5713ZM707.445 79.2796C710.997 79.2796 713.636 80.0252 715.362 81.5163C717.121 82.9735 718.001 85.9727 718.001 90.5138C718.001 92.9538 717.273 97.9355 715.818 105.459C714.364 112.982 713.636 117.557 713.636 119.184C713.636 122.437 714.279 124.064 715.565 124.064C718.644 124.064 722.027 121.776 725.715 117.201C729.436 112.592 731.365 108.746 731.5 105.662L723.228 96.3596C723.566 92.8691 724.429 89.7005 725.816 86.8538C727.169 84.0071 728.455 82.0246 729.673 80.9063L731.399 79.2796C734.883 79.2796 737.522 80.2285 739.315 82.1263C741.109 83.9902 742.005 86.176 742.005 88.6838C742.005 95.1227 740.415 101.917 737.235 109.068C734.088 116.219 729.876 122.302 724.598 127.317C719.32 132.299 713.958 134.79 708.511 134.79C705.093 134.79 702.471 133.739 700.644 131.638C698.817 129.537 697.904 126.758 697.904 123.301C697.904 119.845 698.175 115.185 698.716 109.322C699.223 103.459 699.477 97.6474 699.477 91.8863C699.477 90.5646 699.02 89.0058 698.107 87.2096C697.16 85.4474 696.195 84.0241 695.214 82.9396L695.57 81.5163C699.968 80.0252 703.926 79.2796 707.445 79.2796Z" fill="white"/>
</g>
<defs>
<clipPath id="clip0">
<rect width="742" height="183" fill="white"/>
</clipPath>
</defs>
</svg>
