<svg width="143" height="143" viewBox="0 0 143 143" fill="none" xmlns="http://www.w3.org/2000/svg">
<path d="M131.796 12.2537H10.3022C8.53877 12.2537 7.105 13.6856 7.105 15.4562V44.2787C7.105 46.0451 8.53877 47.4812 10.3022 47.4812H13.4994V127.544C13.4994 129.31 14.9332 130.746 16.6966 130.746H125.402C127.165 130.746 128.599 129.31 128.599 127.544V47.4812H131.796C133.559 47.4812 134.993 46.0451 134.993 44.2787V15.4562C134.993 13.6856 133.559 12.2537 131.796 12.2537ZM122.204 124.341H19.8938V47.4812H122.204V124.341ZM128.599 41.0762H13.4994V18.6587H128.599V41.0762Z" fill="#C2AE19"/>
<path d="M88.6238 66.6963C91.2682 66.6963 94.2196 68.854 94.2196 71.5C94.2196 74.1488 91.2696 76.3038 88.6238 76.3038H53.4545C50.8101 76.3038 47.8587 74.1488 47.8587 71.5C47.8587 68.854 50.8101 66.6963 53.4545 66.6963H88.6238ZM88.6238 60.2913H53.4545C47.2761 60.2913 42.2643 65.3099 42.2643 71.5C42.2643 77.6929 47.2761 82.7088 53.4545 82.7088H88.6238C94.8036 82.7088 99.814 77.6929 99.814 71.5C99.814 65.3099 94.8036 60.2913 88.6238 60.2913Z" fill="#C2AE19"/>
</svg>
